<?xml version="1.0" encoding="utf-8"?>
<!-- Generator: Adobe Illustrator 26.0.2, SVG Export Plug-In . SVG Version: 6.00 Build 0)  -->
<svg version="1.1" id="Layer_1" xmlns="http://www.w3.org/2000/svg" xmlns:xlink="http://www.w3.org/1999/xlink" x="0px" y="0px"
	 viewBox="0 0 600 450" style="enable-background:new 0 0 600 450;" xml:space="preserve">
<style type="text/css">
	.st0{fill:#FED136;}
</style>
<g id="Layer_2_00000088813758729910902040000012473628146358833581_">
	<rect width="600" height="450"/>
</g>
<g>
	<path class="st0" d="M76.2,278.2c-8.5,0-14-4.4-16.9-11.4c-1.5,3.3-3.3,7.2-4.6,10.5c-0.7,1.5-1.5,1.8-2.6,0.4
		c-2.4-3.3-3.9-7.9-0.9-17.7c4.4-13.4,35.7-72.7,46.9-88c1.5-2,2.6-2,3.9,0.2c2.4,4.6,2.4,11.8-4.2,23.7
		c-2.4,4.6-9.4,15.5-14.2,24.3c4.6-4.2,9.6-6.8,13.8-6.8c13.6,0,14.2,18.8,5.5,38.5C95.5,269,85.4,278.2,76.2,278.2z M83.4,226.5
		c-7.2,7.4-14.9,20.8-20.8,33.3c0.2,4.6,2.4,9.9,6.8,10.7c5.7,1.3,12.9-3.5,22.3-22.1c9.2-18.2,7.2-28,3.5-28.3
		C91.7,219.9,88.2,221.7,83.4,226.5z"/>
	<path class="st0" d="M131.4,274.3c13.4,0.7,25-12.3,32-22.8c0.9-1.3,2.2-1.3,2.6,0.2c0.7,1.3,0.2,5.7-2.6,9.9
		c-6.8,9.9-19.1,17.1-31.5,17.3c-20.4,0.2-27.4-19.7-17.1-40.5c10.5-20.8,26.7-29.1,34.8-24.3c3.9,2.4,7,4.8,9.4,8.3
		c2.8,3.9,1.5,13.6-5,21.9c-7.9,9.6-18.6,13.8-29.8,4.6C119.1,263.7,122.8,273.8,131.4,274.3z M144.7,237.5c5-6.8,8.8-15.1,6.4-16.9
		c-3.3-2.8-16.6,6.8-24.1,22.1c-0.4,0.9-0.9,2-1.3,2.6C133.6,250.4,140.1,243.4,144.7,237.5z"/>
	<path class="st0" d="M175.6,274c7.7,0.7,18.8-10.9,25.2-23.2c1.1-2.2,2.8-2.2,3.5,0c0.9,2.6,0.2,6.1-1.5,9.9
		c-2.2,4.8-14,18.2-26.7,17.7c-11.2-0.2-17.1-8.1-13.4-25.4c5.9-28,24.3-56.9,40.5-74c2.4-2.6,4.6-2.8,7-0.9
		c4.6,4.2,5.7,10.1,3.7,17.7c-5,19.7-23,39-37.2,48.4C170.2,260,168.4,273.4,175.6,274z M208.3,192.6c-2.2-1.3-14,16.4-25,37
		c-1.5,2.6-2.6,5-3.9,7.7C201.5,219.5,210.4,193.9,208.3,192.6z"/>
	<path class="st0" d="M212.4,274c7.7,0.7,18.8-10.9,25.2-23.2c1.1-2.2,2.8-2.2,3.5,0c0.9,2.6,0.2,6.1-1.5,9.9
		c-2.2,4.8-14,18.2-26.7,17.7c-11.2-0.2-17.1-8.1-13.4-25.4c5.9-28,24.3-56.9,40.5-74c2.4-2.6,4.6-2.8,7-0.9
		c4.6,4.2,5.7,10.1,3.7,17.7c-5,19.7-23,39-37.2,48.4C206.9,260,205.2,273.4,212.4,274z M245.3,192.6c-2.2-1.3-14,16.4-25,37
		c-1.5,2.6-2.6,5-3.9,7.7C238.3,219.5,247.2,193.9,245.3,192.6z"/>
	<path class="st0" d="M239.8,278.4c-11.4-0.9-11.8-12.7-8.1-23.2c3.5-10.5,11.8-26.3,22.1-41c1.3-1.8,2.8-1.5,4.2-0.2
		c3.5,5.3,2.6,12.5-3.1,21.7c-5.9,9.4-9.2,16-12.5,23.7c-3.3,7.9-2.8,13.6,0.9,14c6.4,0.4,15.1-10.7,23.7-24.7
		c10.1-16.4,14.7-27.4,19.9-34.4c1.5-2.2,2.6-2.6,3.9-0.9c2.4,2.8,3.7,9.9-0.2,18c-3.5,7.2-11.6,19.3-15.3,27.4
		c-4.2,9.2-3.5,16,2.2,15.5c6.8-0.2,14.9-10.9,21.2-22.1c0.9-1.5,2.2-1.5,2.8-0.2c0.7,1.3,0.9,5.7-1.5,10.1
		c-4.6,9-14.7,17.1-24.1,17.1c-10.5,0-14.7-6.6-13.4-16C257.3,271,248.8,279.1,239.8,278.4z"/>
	<path class="st0" d="M343.6,223.2c3.3,6.8-3.1,15.3-6.4,23.9c-0.7,2-1.3,2.4-3.3,1.3c-3.9-2-6.1-6.8-3.9-14
		c1.8-5.7,6.6-12.7,4.4-14.5c-2.6-2.2-14.7,8.1-21.9,22.6c-8.8,18.2-5.5,31.5,3.9,31.5c13.6,0.2,25-12.7,31.5-22.8
		c0.9-1.3,2.2-1.5,2.8,0.2c0.4,1.3-0.2,5.3-2.8,9.6c-6.1,9.4-18.8,17.3-30.9,17.5c-20.4,0.2-27.4-19.5-16.9-40.3
		c10.3-20.1,26.5-28.9,34.6-24.1C339.2,216.9,341.8,219.5,343.6,223.2z"/>
	<path class="st0" d="M393.5,223.2c3.3,6.8-3.1,15.3-6.4,23.9c-0.7,2-1.3,2.4-3.3,1.3c-3.9-2-6.1-6.8-3.9-14
		c1.8-5.7,6.6-12.7,4.4-14.5c-2.6-2.2-14.7,8.1-21.9,22.6c-8.8,18.2-5.5,31.5,3.9,31.5c13.6,0.2,25-12.7,31.5-22.8
		c0.9-1.3,2.2-1.5,2.8,0.2c0.4,1.3-0.2,5.3-2.8,9.6c-6.1,9.4-18.8,17.3-30.9,17.5c-20.4,0.2-27.4-19.5-16.9-40.3
		c10.3-20.1,26.5-28.9,34.6-24.1C389.1,216.9,391.8,219.5,393.5,223.2z"/>
	<path class="st0" d="M395.5,255.4c3.9-11.6,14.7-30.7,20.6-39c1.5-2,2.6-2.4,3.9-0.9c2.4,2.6,3.7,9.4-0.2,17.5
		c-3.3,7-10.1,18-13.6,26.1c-3.9,9.4-3.5,15.5,1.5,15.3c7.2-0.2,16-10.9,20.8-21.9c0.9-1.5,2-1.3,2.6,0c1.3,2.6,0.9,5.9-1.1,9.9
		c-4.8,9.9-14.9,16.6-23.9,16.6C394,278.9,390.9,268.6,395.5,255.4z M431.2,213.4c-2.2,2.2-6.6,1.8-9-2.4c-2.6-4.4-1.8-9.2,0.9-11.8
		c2.6-2.6,7.2-0.9,9.4,3.5C434.5,206.8,433.4,211.2,431.2,213.4z"/>
	<path class="st0" d="M446.1,263.7c3.3,1.1,4.2,5.3,2.4,9.6c-1.8,4.2-5.9,6.8-9.2,5.7c-3.3-1.1-4.2-5.7-2.4-9.6
		C438.9,265.1,443,262.6,446.1,263.7z"/>
	<path class="st0" d="M463.6,255.4c3.9-11.6,14.7-30.7,20.6-39c1.5-2,2.6-2.4,3.9-0.9c2.4,2.6,3.7,9.4-0.2,17.5
		c-3.3,7-10.1,18-13.6,26.1c-3.9,9.4-3.5,15.5,1.5,15.3c7.2-0.2,16-10.9,20.8-21.9c0.9-1.5,2-1.3,2.6,0c1.3,2.6,0.9,5.9-1.1,9.9
		c-4.8,9.9-14.9,16.6-23.9,16.6C462.1,278.9,459,268.6,463.6,255.4z M499.3,213.4c-2.2,2.2-6.6,1.8-9-2.4c-2.6-4.4-1.8-9.2,0.9-11.8
		c2.6-2.6,7.2-0.9,9.4,3.5C502.6,206.8,501.5,211.2,499.3,213.4z"/>
	<path class="st0" d="M546,244c-3.3,13.6-13.6,29.8-25.4,33.9c-5.7,2-13.8,1.3-20.1-7c-7-9.2-4.6-23.2,2.6-36.1
		c6.1-10.9,16-20.1,25.6-20.8c5-0.2,7.7,1.1,10.9,5.5c3.7,5,8.5,6.1,7.4,17.7c-0.2,1.3-0.2,2.4-0.2,3.7c0.9,0,2-0.2,3.3-0.2
		c1.1,0,1.1,0.9,0.4,1.5C549.2,243.2,547.7,243.8,546,244z M532.4,239.9c-3.3-2.6-7.2-8.1-7.4-14.2c-4.4,3.7-9,9-12.3,15.1
		c-6.8,12.3-9.2,26.9-5,30.4c4.6,3.7,14.2-2,22.1-16.6c2.4-4.6,4.4-9,5.7-12.9C534.3,241.4,533.3,240.7,532.4,239.9z M537.8,225.6
		c-0.9-5-3.9-4.2-4.8,0.4c-0.9,4.4,0.9,9,3.5,11.4C537.8,232.4,538.3,228.5,537.8,225.6z"/>
</g>
</svg>
