<svg xmlns="http://www.w3.org/2000/svg" viewBox="0 0 600 450"><defs><style>.cls-1{fill:#f1f2f2;}.cls-2,.cls-4,.cls-9{fill:#fff;}.cls-2,.cls-8,.cls-9{stroke:#000;stroke-miterlimit:10;}.cls-2,.cls-8{stroke-width:0.25px;}.cls-3{opacity:0.75;}.cls-5{fill:#0682bc;}.cls-6{fill:#6bcef1;}.cls-7{fill:#41b8ea;}.cls-8{fill:none;}.cls-10{fill:#fcce5b;}.cls-11{fill:#ffc908;}.cls-12{fill:#c89a2c;}</style></defs><g id="Layer_2" data-name="Layer 2"><rect class="cls-1" width="600" height="450"/></g><g id="Layer_3" data-name="Layer 3"><polygon class="cls-2" points="184.79 248.41 26.47 381.26 26.47 182.16 184.79 49.31 184.79 248.41"/><g class="cls-3"><path class="cls-4" d="M91.6,214.85c-.78,5.13-3,11-6,17.11-2.34,4.79-4.89,9.59-7.46,14.38-3.89,7.23-8,14.44-11.43,21.73-4.43,9.4-7.19,18-7.3,25.44,0,1,0,2,0,3.14a13.26,13.26,0,0,1-1.58-.46c-4.33-1.83-6.2-6.42-5.08-14.3.87-6.17,3.65-12.84,8-19.83,1.15-1.87,1.37-3.19.58-3.57s-1.87.42-3,2.3-2.51,4-3.58,6.1c-6.87,13.11-8.93,23.53-6.4,31,2.46,7.25,8,9.48,17.24,5.21,5-2.3,10.2-6.13,15.48-10.57,4.62-3.89,9.23-8,13.85-12,5.2-4.45,10.4-8.84,15.59-13.26,2-1.65,3.18-4,3-5.8s-1.07-2.88-2.59-3c-2.35-.18-5.18,1.48-8.46,4.48.24-.41.36-.63.5-.85a59.91,59.91,0,0,0,5.21-10.63c3.17-8.77,1.86-14.38-3.51-14.18-4.81.18-10.43,4.07-16.36,10-2.23,2.26-4.4,4.89-6.6,7.35.09,0,.17-.17.26-.3,5.62-7.83,11.56-14.1,17.89-17.91,4.69-2.81,8.52-3.58,10.78-1.07s2,7.18.06,13.22a2.91,2.91,0,0,0-.19,1.54,63.26,63.26,0,0,0,2.86,6.22,5.73,5.73,0,0,0,4.33,3.26c1.06.13,2.28-.29,3.83-1.61,4.34-3.69,8.69-7.3,13-11,2-1.68,3.28-4.27,3-6-.56-3.15-3.2-3.75-7-1.43-1.2.75-2.47,1.83-3.7,2.7-2.47,1.74-4.15,1.35-4.75-1.09-.75-3.06-.32-7.08.5-11.36.86-4.5,2-9.18,3-13.78,1.29-5.82,1.82-11.05,1-15.3a17.21,17.21,0,0,0-3.86-8.08,14.9,14.9,0,0,1-2.07-3.48c-.45-1,.14-2.72,1.45-4.51a29.48,29.48,0,0,1,2.38-2.87,176.4,176.4,0,0,0,11.84-13.4c7.29-9.45,11.68-18.86,13.83-28.27a4.64,4.64,0,0,1,.77-1.47c2.17-2.7,3.32-5.85,2.69-7.49-.51-1.31-1.7-1.38-3.46-.21a12.81,12.81,0,0,0-4.18,5.18,4,4,0,0,1-.82,1.15c-2.12,1.74-4.25,3.28-6.36,5.17-4,3.59-7.45,5.27-10.53,5.36a29.42,29.42,0,0,0-6.09.48c-10.27,2.36-23.09,15.5-30,30.76C91,182,89.57,184.78,88,187.58a81.42,81.42,0,0,0-6.86,15.2c-2.4,7.8-1,12.1,3.8,11.69,3.84-.32,8.22-2.89,13-7.48a35.78,35.78,0,0,0,10.17-16.45,25.58,25.58,0,0,0,.81-5.5,17.5,17.5,0,0,0-2.22-9.31c-.11-.2-.21-.41-.32-.62,1.93,1.54,4.13,6,4.08,10.67-.08,7.85-5.32,17.06-12.41,23.7C95.93,211.43,93.81,213,91.6,214.85Z"/><path d="M91.6,214.85c2.21-1.84,4.33-3.42,6.42-5.37,7.09-6.64,12.33-15.85,12.41-23.7,0-4.69-2.15-9.13-4.08-10.67.11.21.21.42.32.62a17.5,17.5,0,0,1,2.22,9.31,25.58,25.58,0,0,1-.81,5.5A35.78,35.78,0,0,1,97.91,207c-4.74,4.59-9.12,7.16-13,7.48-4.84.41-6.2-3.89-3.8-11.69A81.42,81.42,0,0,1,88,187.58c1.56-2.8,2.95-5.55,4.23-8.38,6.92-15.26,19.74-28.4,30-30.76a29.42,29.42,0,0,1,6.09-.48c3.08-.09,6.52-1.77,10.53-5.36,2.11-1.89,4.24-3.43,6.36-5.17a4,4,0,0,0,.82-1.15,12.81,12.81,0,0,1,4.18-5.18c1.76-1.17,3-1.1,3.46.21.63,1.64-.52,4.79-2.69,7.49a4.64,4.64,0,0,0-.77,1.47c-2.15,9.41-6.54,18.82-13.83,28.27a176.4,176.4,0,0,1-11.84,13.4,29.48,29.48,0,0,0-2.38,2.87c-1.31,1.79-1.9,3.48-1.45,4.51a14.9,14.9,0,0,0,2.07,3.48,17.21,17.21,0,0,1,3.86,8.08c.77,4.25.24,9.48-1,15.3-1,4.6-2.18,9.28-3,13.78-.82,4.28-1.25,8.3-.5,11.36.6,2.44,2.28,2.83,4.75,1.09,1.23-.87,2.5-1.95,3.7-2.7,3.78-2.32,6.42-1.72,7,1.43.3,1.71-1,4.3-3,6-4.35,3.66-8.7,7.27-13,11-1.55,1.32-2.77,1.74-3.83,1.61a5.73,5.73,0,0,1-4.33-3.26,63.26,63.26,0,0,1-2.86-6.22,2.91,2.91,0,0,1,.19-1.54c1.91-6,2.19-10.72-.06-13.22s-6.09-1.74-10.78,1.07c-6.33,3.81-12.27,10.08-17.89,17.91-.09.13-.17.28-.26.3,2.2-2.46,4.37-5.09,6.6-7.35,5.93-6,11.55-9.86,16.36-10,5.37-.2,6.68,5.41,3.51,14.18a59.91,59.91,0,0,1-5.21,10.63c-.14.22-.26.44-.5.85,3.28-3,6.11-4.66,8.46-4.48,1.52.11,2.43,1.07,2.59,3s-1.06,4.15-3,5.8c-5.19,4.42-10.39,8.81-15.59,13.26-4.62,4-9.23,8.08-13.85,12-5.28,4.44-10.51,8.27-15.48,10.57-9.23,4.27-14.78,2-17.24-5.21-2.53-7.48-.47-17.9,6.4-31,1.07-2.05,2.34-4.08,3.58-6.1s2.27-2.67,3-2.3.57,1.7-.58,3.57c-4.34,7-7.12,13.66-8,19.83-1.12,7.88.75,12.47,5.08,14.3a13.26,13.26,0,0,0,1.58.46c0-1.17,0-2.14,0-3.14.11-7.41,2.87-16,7.3-25.44,3.43-7.29,7.54-14.5,11.43-21.73,2.57-4.79,5.12-9.59,7.46-14.38C88.56,225.89,90.82,220,91.6,214.85Zm29.2-51.39c-1.55.45-2.14-.14-1.86-1.87a7.87,7.87,0,0,1,2-3.93c1.53-1.67,2.61-1.84,3.38-1,.22-2.55-1.46-3.2-3.59-1.57-2.42,1.85-4.46,5.49-4.51,8S118,165.8,120.8,163.46Z"/><path class="cls-4" d="M120.8,163.46c-2.78,2.34-4.6,2-4.56-.41s2.09-6.16,4.51-8c2.13-1.63,3.81-1,3.59,1.57-.77-.79-1.85-.62-3.38,1a7.87,7.87,0,0,0-2,3.93C118.66,163.32,119.25,163.91,120.8,163.46Z"/></g><polygon class="cls-5" points="308.9 102.95 308.9 237.7 201.75 327.61 201.75 192.86 308.9 102.95"/><polygon class="cls-6" points="308.9 102.95 201.75 192.86 148.17 192.86 255.32 102.95 308.9 102.95"/><rect class="cls-7" x="148.17" y="192.86" width="53.58" height="134.75"/><polyline class="cls-8" points="148.17 327.61 148.17 192.86 255.32 102.95"/><polygon class="cls-8" points="308.9 102.95 308.9 237.7 201.75 327.61 201.75 192.86 308.9 102.95"/><line class="cls-8" x1="255.32" y1="102.95" x2="308.9" y2="102.95"/><line class="cls-8" x1="148.17" y1="192.86" x2="201.75" y2="192.86"/><line class="cls-8" x1="148.17" y1="327.61" x2="201.75" y2="327.61"/><line class="cls-8" x1="458.75" y1="59.31" x2="547.67" y2="128.63"/><line class="cls-8" x1="458.75" y1="93.97" x2="547.67" y2="163.29"/><line class="cls-8" x1="458.75" y1="128.63" x2="547.67" y2="197.95"/><line class="cls-8" x1="458.75" y1="163.29" x2="547.67" y2="232.61"/><line class="cls-8" x1="458.75" y1="197.95" x2="547.67" y2="267.27"/><line class="cls-8" x1="458.75" y1="232.61" x2="547.67" y2="301.93"/><line class="cls-8" x1="458.75" y1="267.27" x2="547.67" y2="301.93"/><line class="cls-8" x1="458.75" y1="301.93" x2="547.67" y2="301.93"/><line class="cls-8" x1="458.75" y1="336.59" x2="547.67" y2="301.93"/><line class="cls-8" x1="458.75" y1="371.25" x2="547.67" y2="301.93"/><line class="cls-8" x1="458.75" y1="336.59" x2="547.67" y2="267.27"/><line class="cls-8" x1="547.67" y1="232.61" x2="458.75" y2="371.25"/><line class="cls-8" x1="547.67" y1="197.95" x2="458.75" y2="371.25"/><line class="cls-8" x1="547.67" y1="163.29" x2="458.75" y2="371.25"/><line class="cls-8" x1="547.67" y1="128.63" x2="458.75" y2="371.25"/><line class="cls-8" x1="547.67" y1="232.61" x2="458.75" y2="336.59"/><line class="cls-8" x1="547.67" y1="197.95" x2="458.75" y2="336.59"/><line class="cls-8" x1="547.67" y1="163.29" x2="458.75" y2="336.59"/><line class="cls-8" x1="547.67" y1="128.63" x2="458.75" y2="336.59"/><line class="cls-8" x1="458.75" y1="301.93" x2="547.67" y2="267.27"/><line class="cls-8" x1="547.67" y1="232.61" x2="458.75" y2="301.93"/><line class="cls-8" x1="547.67" y1="197.95" x2="458.75" y2="301.93"/><line class="cls-8" x1="547.67" y1="163.29" x2="458.75" y2="301.93"/><line class="cls-8" x1="547.67" y1="128.63" x2="458.75" y2="301.93"/><line class="cls-8" x1="547.67" y1="267.27" x2="458.75" y2="267.27"/><line class="cls-8" x1="547.67" y1="232.61" x2="458.75" y2="267.27"/><line class="cls-8" x1="547.67" y1="197.95" x2="458.75" y2="267.27"/><line class="cls-8" x1="547.67" y1="163.29" x2="458.75" y2="267.27"/><line class="cls-8" x1="547.67" y1="128.63" x2="458.75" y2="267.27"/><line class="cls-8" x1="547.67" y1="232.61" x2="458.75" y2="232.61"/><line class="cls-8" x1="547.67" y1="267.27" x2="458.75" y2="232.61"/><line class="cls-8" x1="547.67" y1="197.95" x2="458.75" y2="232.61"/><line class="cls-8" x1="547.67" y1="163.29" x2="458.75" y2="232.61"/><line class="cls-8" x1="547.67" y1="128.63" x2="458.75" y2="232.61"/><line class="cls-8" x1="547.67" y1="301.93" x2="458.75" y2="197.95"/><line class="cls-8" x1="547.67" y1="267.27" x2="458.75" y2="371.25"/><line class="cls-8" x1="547.67" y1="232.61" x2="458.75" y2="197.95"/><line class="cls-8" x1="458.75" y1="128.63" x2="547.67" y2="232.61"/><line class="cls-8" x1="458.75" y1="93.97" x2="547.67" y2="232.61"/><line class="cls-8" x1="458.75" y1="59.31" x2="547.67" y2="232.61"/><line class="cls-8" x1="547.67" y1="301.93" x2="458.75" y2="163.29"/><line class="cls-8" x1="458.75" y1="197.95" x2="547.67" y2="197.95"/><line class="cls-8" x1="547.67" y1="163.29" x2="458.75" y2="197.95"/><line class="cls-8" x1="547.67" y1="128.63" x2="458.75" y2="197.95"/><line class="cls-8" x1="547.67" y1="267.27" x2="458.75" y2="163.29"/><line class="cls-8" x1="458.75" y1="128.63" x2="547.67" y2="301.93"/><line class="cls-8" x1="458.75" y1="93.97" x2="547.67" y2="301.93"/><line class="cls-8" x1="458.75" y1="59.31" x2="547.67" y2="301.93"/><line class="cls-8" x1="458.75" y1="128.63" x2="547.67" y2="267.27"/><line class="cls-8" x1="458.75" y1="93.97" x2="547.67" y2="267.27"/><line class="cls-8" x1="458.75" y1="59.31" x2="547.67" y2="267.27"/><line class="cls-8" x1="458.75" y1="163.29" x2="547.67" y2="197.95"/><line class="cls-8" x1="458.75" y1="93.97" x2="547.67" y2="197.95"/><line class="cls-8" x1="458.75" y1="59.31" x2="547.67" y2="197.95"/><line class="cls-8" x1="458.75" y1="163.29" x2="547.67" y2="163.29"/><line class="cls-8" x1="458.75" y1="128.63" x2="547.67" y2="163.29"/><line class="cls-8" x1="458.75" y1="93.97" x2="547.67" y2="163.29"/><line class="cls-8" x1="458.75" y1="59.31" x2="547.67" y2="163.29"/><line class="cls-8" x1="458.75" y1="163.29" x2="547.67" y2="128.63"/><line class="cls-8" x1="458.75" y1="128.63" x2="547.67" y2="128.63"/><line class="cls-8" x1="458.75" y1="93.97" x2="547.67" y2="128.63"/><line class="cls-8" x1="458.75" y1="59.31" x2="547.67" y2="128.63"/><circle class="cls-9" cx="547.67" cy="128.63" r="13.41"/><circle class="cls-9" cx="547.67" cy="163.29" r="13.41"/><circle class="cls-9" cx="547.67" cy="232.61" r="13.41"/><circle class="cls-9" cx="547.67" cy="267.27" r="13.41"/><circle class="cls-9" cx="547.67" cy="301.93" r="13.41"/><circle class="cls-9" cx="547.67" cy="197.95" r="13.41"/><circle class="cls-9" cx="458.75" cy="59.31" r="13.41"/><circle class="cls-9" cx="458.75" cy="93.97" r="13.41"/><circle class="cls-9" cx="458.75" cy="128.63" r="13.41"/><circle class="cls-9" cx="458.75" cy="163.29" r="13.41"/><circle class="cls-9" cx="458.75" cy="232.61" r="13.41"/><circle class="cls-9" cx="458.75" cy="267.27" r="13.41"/><circle class="cls-9" cx="458.75" cy="301.93" r="13.41"/><circle class="cls-9" cx="458.75" cy="336.59" r="13.41"/><circle class="cls-9" cx="458.75" cy="371.25" r="13.41"/><circle class="cls-9" cx="458.75" cy="197.95" r="13.41"/><polygon class="cls-10" points="333.19 159.6 419.32 159.6 366.21 204.17 280.08 204.17 333.19 159.6"/><rect class="cls-11" x="280.08" y="204.17" width="86.13" height="66.79"/><polygon class="cls-12" points="419.32 159.6 419.32 226.4 366.21 270.96 366.21 204.17 419.32 159.6"/><polyline class="cls-8" points="280.08 270.96 280.08 204.17 333.19 159.6"/><polygon class="cls-8" points="419.32 159.6 419.32 226.4 366.21 270.96 366.21 204.17 419.32 159.6"/><line class="cls-8" x1="280.08" y1="270.96" x2="366.21" y2="270.96"/><line class="cls-8" x1="280.08" y1="204.17" x2="366.21" y2="204.17"/><line class="cls-8" x1="333.19" y1="159.6" x2="419.32" y2="159.6"/></g></svg>