<?xml version="1.0" encoding="utf-8"?>
<!-- Generator: Adobe Illustrator 26.0.2, SVG Export Plug-In . SVG Version: 6.00 Build 0)  -->
<svg version="1.1" id="Layer_1" xmlns="http://www.w3.org/2000/svg" xmlns:xlink="http://www.w3.org/1999/xlink" x="0px" y="0px"
	 viewBox="0 0 234.7 54.8" style="enable-background:new 0 0 234.7 54.8;" xml:space="preserve">
<style type="text/css">
	.st0{fill:#FED136;}
</style>
<g>
	<path class="st0" d="M14.3,52.2c-3.9,0-6.4-2-7.7-5.2c-0.7,1.5-1.5,3.3-2.1,4.8c-0.3,0.7-0.7,0.8-1.2,0.2c-1.1-1.5-1.8-3.6-0.4-8.1
		c2-6.1,16.3-33.2,21.4-40.2c0.7-0.9,1.2-0.9,1.8,0.1c1.1,2.1,1.1,5.4-1.9,10.8c-1.1,2.1-4.3,7.1-6.5,11.1c2.1-1.9,4.4-3.1,6.3-3.1
		c6.2,0,6.5,8.6,2.5,17.6C23.1,48,18.5,52.2,14.3,52.2z M17.6,28.6c-3.3,3.4-6.8,9.5-9.5,15.2c0.1,2.1,1.1,4.5,3.1,4.9
		c2.6,0.6,5.9-1.6,10.2-10.1c4.2-8.3,3.3-12.8,1.6-12.9C21.4,25.6,19.8,26.4,17.6,28.6z"/>
	<path class="st0" d="M39.5,50.4c6.1,0.3,11.4-5.6,14.6-10.4c0.4-0.6,1-0.6,1.2,0.1c0.3,0.6,0.1,2.6-1.2,4.5
		c-3.1,4.5-8.7,7.8-14.4,7.9c-9.3,0.1-12.5-9-7.8-18.5c4.8-9.5,12.2-13.3,15.9-11.1c1.8,1.1,3.2,2.2,4.3,3.8c1.3,1.8,0.7,6.2-2.3,10
		c-3.6,4.4-8.5,6.3-13.6,2.1C33.9,45.6,35.6,50.2,39.5,50.4z M45.6,33.6c2.3-3.1,4-6.9,2.9-7.7C47,24.6,40.9,29,37.5,36
		c-0.2,0.4-0.4,0.9-0.6,1.2C40.5,39.5,43.5,36.3,45.6,33.6z"/>
	<path class="st0" d="M59.7,50.3c3.5,0.3,8.6-5,11.5-10.6c0.5-1,1.3-1,1.6,0c0.4,1.2,0.1,2.8-0.7,4.5c-1,2.2-6.4,8.3-12.2,8.1
		c-5.1-0.1-7.8-3.7-6.1-11.6c2.7-12.8,11.1-26,18.5-33.8c1.1-1.2,2.1-1.3,3.2-0.4c2.1,1.9,2.6,4.6,1.7,8.1c-2.3,9-10.5,17.8-17,22.1
		C57.2,43.9,56.4,50,59.7,50.3z M74.6,13.1c-1-0.6-6.4,7.5-11.4,16.9c-0.7,1.2-1.2,2.3-1.8,3.5C71.5,25.4,75.6,13.7,74.6,13.1z"/>
	<path class="st0" d="M76.5,50.3c3.5,0.3,8.6-5,11.5-10.6c0.5-1,1.3-1,1.6,0c0.4,1.2,0.1,2.8-0.7,4.5c-1,2.2-6.4,8.3-12.2,8.1
		c-5.1-0.1-7.8-3.7-6.1-11.6c2.7-12.8,11.1-26,18.5-33.8c1.1-1.2,2.1-1.3,3.2-0.4c2.1,1.9,2.6,4.6,1.7,8.1c-2.3,9-10.5,17.8-17,22.1
		C74,43.9,73.2,50,76.5,50.3z M91.5,13.1c-1-0.6-6.4,7.5-11.4,16.9c-0.7,1.2-1.2,2.3-1.8,3.5C88.3,25.4,92.4,13.7,91.5,13.1z"/>
	<path class="st0" d="M89,52.3c-5.2-0.4-5.4-5.8-3.7-10.6c1.6-4.8,5.4-12,10.1-18.7c0.6-0.8,1.3-0.7,1.9-0.1
		c1.6,2.4,1.2,5.7-1.4,9.9c-2.7,4.3-4.2,7.3-5.7,10.8c-1.5,3.6-1.3,6.2,0.4,6.4c2.9,0.2,6.9-4.9,10.8-11.3
		c4.6-7.5,6.7-12.5,9.1-15.7c0.7-1,1.2-1.2,1.8-0.4c1.1,1.3,1.7,4.5-0.1,8.2c-1.6,3.3-5.3,8.8-7,12.5c-1.9,4.2-1.6,7.3,1,7.1
		c3.1-0.1,6.8-5,9.7-10.1c0.4-0.7,1-0.7,1.3-0.1c0.3,0.6,0.4,2.6-0.7,4.6c-2.1,4.1-6.7,7.8-11,7.8c-4.8,0-6.7-3-6.1-7.3
		C97,48.9,93.1,52.6,89,52.3z"/>
	<path class="st0" d="M136.4,27.1c1.5,3.1-1.4,7-2.9,10.9c-0.3,0.9-0.6,1.1-1.5,0.6c-1.8-0.9-2.8-3.1-1.8-6.4c0.8-2.6,3-5.8,2-6.6
		c-1.2-1-6.7,3.7-10,10.3c-4,8.3-2.5,14.4,1.8,14.4c6.2,0.1,11.4-5.8,14.4-10.4c0.4-0.6,1-0.7,1.3,0.1c0.2,0.6-0.1,2.4-1.3,4.4
		c-2.8,4.3-8.6,7.9-14.1,8c-9.3,0.1-12.5-8.9-7.7-18.4c4.7-9.2,12.1-13.2,15.8-11C134.4,24.2,135.6,25.4,136.4,27.1z"/>
	<path class="st0" d="M159.2,27.1c1.5,3.1-1.4,7-2.9,10.9c-0.3,0.9-0.6,1.1-1.5,0.6c-1.8-0.9-2.8-3.1-1.8-6.4c0.8-2.6,3-5.8,2-6.6
		c-1.2-1-6.7,3.7-10,10.3c-4,8.3-2.5,14.4,1.8,14.4c6.2,0.1,11.4-5.8,14.4-10.4c0.4-0.6,1-0.7,1.3,0.1c0.2,0.6-0.1,2.4-1.3,4.4
		c-2.8,4.3-8.6,7.9-14.1,8c-9.3,0.1-12.5-8.9-7.7-18.4c4.7-9.2,12.1-13.2,15.8-11C157.2,24.2,158.4,25.4,159.2,27.1z"/>
	<path class="st0" d="M160.1,41.8c1.8-5.3,6.7-14,9.4-17.8c0.7-0.9,1.2-1.1,1.8-0.4c1.1,1.2,1.7,4.3-0.1,8
		c-1.5,3.2-4.6,8.2-6.2,11.9c-1.8,4.3-1.6,7.1,0.7,7c3.3-0.1,7.3-5,9.5-10c0.4-0.7,0.9-0.6,1.2,0c0.6,1.2,0.4,2.7-0.5,4.5
		c-2.2,4.5-6.8,7.6-10.9,7.6C159.4,52.5,158,47.8,160.1,41.8z M176.4,22.6c-1,1-3,0.8-4.1-1.1c-1.2-2-0.8-4.2,0.4-5.4
		c1.2-1.2,3.3-0.4,4.3,1.6C177.9,19.6,177.4,21.6,176.4,22.6z"/>
	<path class="st0" d="M183.2,45.6c1.5,0.5,1.9,2.4,1.1,4.4c-0.8,1.9-2.7,3.1-4.2,2.6c-1.5-0.5-1.9-2.6-1.1-4.4
		C179.9,46.2,181.8,45.1,183.2,45.6z"/>
	<path class="st0" d="M191.2,41.8c1.8-5.3,6.7-14,9.4-17.8c0.7-0.9,1.2-1.1,1.8-0.4c1.1,1.2,1.7,4.3-0.1,8
		c-1.5,3.2-4.6,8.2-6.2,11.9c-1.8,4.3-1.6,7.1,0.7,7c3.3-0.1,7.3-5,9.5-10c0.4-0.7,0.9-0.6,1.2,0c0.6,1.2,0.4,2.7-0.5,4.5
		c-2.2,4.5-6.8,7.6-10.9,7.6C190.5,52.5,189.1,47.8,191.2,41.8z M207.5,22.6c-1,1-3,0.8-4.1-1.1c-1.2-2-0.8-4.2,0.4-5.4
		c1.2-1.2,3.3-0.4,4.3,1.6C209,19.6,208.5,21.6,207.5,22.6z"/>
	<path class="st0" d="M228.8,36.6c-1.5,6.2-6.2,13.6-11.6,15.5c-2.6,0.9-6.3,0.6-9.2-3.2c-3.2-4.2-2.1-10.6,1.2-16.5
		c2.8-5,7.3-9.2,11.7-9.5c2.3-0.1,3.5,0.5,5,2.5c1.7,2.3,3.9,2.8,3.4,8.1c-0.1,0.6-0.1,1.1-0.1,1.7c0.4,0,0.9-0.1,1.5-0.1
		c0.5,0,0.5,0.4,0.2,0.7C230.3,36.2,229.6,36.5,228.8,36.6z M222.6,34.7c-1.5-1.2-3.3-3.7-3.4-6.5c-2,1.7-4.1,4.1-5.6,6.9
		c-3.1,5.6-4.2,12.3-2.3,13.9c2.1,1.7,6.5-0.9,10.1-7.6c1.1-2.1,2-4.1,2.6-5.9C223.5,35.4,223,35.1,222.6,34.7z M225.1,28.2
		c-0.4-2.3-1.8-1.9-2.2,0.2c-0.4,2,0.4,4.1,1.6,5.2C225.1,31.3,225.3,29.5,225.1,28.2z"/>
</g>
</svg>
